<?xml version="1.0" ?><!DOCTYPE svg  PUBLIC '-//W3C//DTD SVG 1.1//EN'  'http://www.w3.org/Graphics/SVG/1.1/DTD/svg11.dtd'><svg enable-background="new 0 0 96 96" height="96px" id="Layer_1" version="1.1" viewBox="0 0 96 96" width="96px" xml:space="preserve" xmlns="http://www.w3.org/2000/svg" xmlns:xlink="http://www.w3.org/1999/xlink"><path d="  M34.183,66.082c-1.561,0.271-2.96,0.314-3.769-0.496c-2.016-2.015,1.254-7.69,0.146-10.363c-1.069-2.579-7.431-4.257-7.431-7.223  s6.361-4.644,7.431-7.223c1.108-2.673-2.16-8.35-0.146-10.363c2.015-2.016,7.69,1.254,10.363,0.146  c2.579-1.069,4.257-7.431,7.223-7.431s4.644,6.361,7.223,7.431c2.673,1.109,8.35-2.16,10.363-0.146  c0.846,0.846,0.761,2.337,0.459,3.979" fill="none" stroke="#000000" stroke-linecap="round" stroke-linejoin="round" stroke-miterlimit="10" stroke-width="2"/><path d="  M65.363,37.748c-0.193,1.159-0.255,2.229,0.077,3.029c1.069,2.579,7.431,4.257,7.431,7.223s-6.361,4.644-7.431,7.223  c-1.109,2.673,2.16,8.35,0.146,10.363c-2.015,2.016-7.69-1.254-10.363-0.146c-2.579,1.069-4.257,7.431-7.223,7.431  s-4.644-6.361-7.223-7.431c-0.771-0.32-1.794-0.275-2.907-0.099" fill="none" stroke="#000000" stroke-linecap="round" stroke-linejoin="round" stroke-miterlimit="10" stroke-width="2"/><g><path d="M38.134,50.76c0,0.301-0.25,0.551-0.54,0.551c-0.31,0-0.549-0.25-0.549-0.551v-5.807c0,0,0,0,0-0.01   c-0.011-0.17,0.069-0.35,0.22-0.459c0.25-0.17,0.59-0.121,0.76,0.119l3.228,4.469v-4.119c0-0.289,0.24-0.539,0.54-0.539   s0.55,0.25,0.55,0.539v5.807c0,0.301-0.25,0.551-0.55,0.551c-0.16,0-0.31-0.08-0.41-0.201c-0.02-0.02-0.04-0.039-0.05-0.059   l-3.198-4.438V50.76z"/><path d="M44.095,50.76v-5.896c0-0.309,0.24-0.549,0.55-0.549h0.01c0,0,0,0,0.021,0h3.238c0.29,0,0.55,0.24,0.55,0.549   c0,0.311-0.26,0.561-0.55,0.561h-2.709v1.828h2.329c0.3,0,0.55,0.26,0.55,0.551c0,0.309-0.25,0.559-0.55,0.559h-2.329v1.84h2.709   c0.29,0,0.55,0.25,0.55,0.559c0,0.301-0.26,0.551-0.55,0.551h-3.238c-0.021,0-0.021-0.01-0.021-0.01l-0.01,0.01   C44.335,51.311,44.095,51.061,44.095,50.76z"/><path d="M59.239,45.143l-2.448,5.828c-0.01,0.029-0.03,0.07-0.05,0.09l-0.01,0.01c-0.011,0.02-0.03,0.039-0.051,0.061   c0,0.02-0.01,0.02-0.01,0.029c-0.02,0.01-0.05,0.029-0.069,0.051h-0.011c-0.029,0.02-0.05,0.049-0.09,0.059h-0.01   c0,0-0.01,0-0.01,0.01c-0.021,0-0.05,0.012-0.08,0.021c-0.01,0-0.021,0-0.021,0c-0.029,0.01-0.06,0.01-0.1,0.01   c-0.03,0-0.06,0-0.09-0.01c-0.02,0-0.03,0-0.03,0c-0.029-0.01-0.05-0.021-0.069-0.021c-0.011-0.01-0.011-0.01-0.021-0.01   c-0.04-0.01-0.069-0.039-0.09-0.059c-0.01,0-0.01,0-0.01,0c-0.03-0.021-0.05-0.041-0.07-0.051c-0.01-0.01-0.01-0.01-0.02-0.029   c-0.011-0.021-0.03-0.041-0.04-0.061c-0.021,0-0.021-0.01-0.021-0.01c-0.02-0.02-0.029-0.061-0.04-0.09l-1.309-3.1l-1.31,3.1   c-0.01,0.029-0.03,0.07-0.04,0.09c-0.01,0-0.01,0.01-0.01,0.01c-0.021,0.02-0.04,0.039-0.061,0.061c0,0.02-0.01,0.02-0.01,0.029   c-0.02,0.01-0.04,0.029-0.06,0.051c-0.021,0-0.021,0-0.021,0c-0.029,0.02-0.06,0.049-0.08,0.059c-0.01,0-0.01,0-0.01,0   s-0.01,0-0.01,0.01c-0.04,0-0.06,0.012-0.08,0.021c-0.01,0-0.02,0-0.03,0c-0.029,0.01-0.06,0.01-0.09,0.01   c-0.029,0-0.069,0-0.1-0.01c-0.01,0-0.021,0-0.03,0c-0.029-0.01-0.05-0.021-0.069-0.021c-0.011-0.01-0.011-0.01-0.021-0.01   c-0.03-0.01-0.07-0.039-0.09-0.059c-0.01,0-0.01,0-0.01,0c-0.03-0.021-0.04-0.041-0.07-0.051c-0.01-0.01-0.01-0.01-0.02-0.029   c-0.021-0.021-0.03-0.041-0.051-0.061v-0.01c-0.02-0.02-0.029-0.061-0.05-0.09l-2.458-5.828c-0.11-0.27,0.01-0.6,0.3-0.709   c0.27-0.119,0.6,0.01,0.709,0.291l1.959,4.627l1.289-3.068c0.091-0.221,0.301-0.34,0.521-0.34c0.21,0,0.42,0.119,0.52,0.34   l1.289,3.068l1.949-4.627c0.12-0.281,0.439-0.41,0.729-0.291C59.229,44.543,59.359,44.873,59.239,45.143z"/></g></svg>