<?xml version="1.0" standalone="no"?>
<!DOCTYPE svg PUBLIC "-//W3C//DTD SVG 20010904//EN"
 "http://www.w3.org/TR/2001/REC-SVG-20010904/DTD/svg10.dtd">
<svg version="1.0" xmlns="http://www.w3.org/2000/svg"
 width="165.000000pt" height="47.000000pt" viewBox="0 0 165.000000 47.000000"
 preserveAspectRatio="xMidYMid meet">
<metadata>
Created by potrace 1.10, written by Peter Selinger 2001-2011
</metadata>
<g transform="translate(0.000000,47.000000) scale(0.050000,-0.050000)"
fill="#293a4a" stroke="none">
<path d="M49 691 c-67 -67 -76 -553 -11 -633 51 -64 307 -82 390 -28 29 20 52
25 52 13 0 -15 68 -18 218 -10 148 8 221 4 231 -11 26 -42 327 -28 355 16 23
38 24 38 73 0 59 -46 415 -56 483 -13 32 20 48 20 80 0 55 -35 140 -31 183 8
33 29 40 29 84 1 65 -43 1008 -40 1060 3 35 30 51 586 18 635 -44 66 -97 68
-1635 68 l-1532 0 -49 -49z m700 -33 c181 -45 175 -226 -12 -386 l-84 -72 113
0 c108 0 114 -3 114 -50 l0 -50 -211 0 -210 0 7 55 c6 38 18 53 41 49 20 -3
29 4 22 21 -6 16 31 62 89 111 166 140 155 258 -19 206 -97 -29 -105 -24 -88
46 9 36 33 58 76 70 35 10 66 19 69 20 4 1 45 -8 93 -20z m2211 -67 l0 -89 82
3 c125 5 158 -47 158 -247 l0 -158 -70 0 -70 0 0 150 c0 147 -1 150 -50 150
-49 0 -50 -3 -50 -150 l0 -150 -69 0 c-66 0 -69 3 -76 85 l-7 85 -16 -84 c-35
-179 -334 -114 -365 80 -24 150 72 244 246 240 l107 -3 0 72 c0 39 6 66 12 59
7 -7 7 -62 -1 -123 l-14 -111 -88 0 c-159 0 -163 -186 -4 -196 l95 -6 0 81 c0
45 9 81 20 81 12 0 20 62 20 147 0 165 4 173 83 173 54 0 57 -5 57 -89z m-884
17 c7 -48 -41 -76 -99 -57 -37 12 -50 69 -23 97 31 30 116 2 122 -40z m244
-48 c0 -47 9 -60 40 -60 29 0 40 -13 40 -50 0 -37 -11 -50 -40 -50 -58 0 -60
-191 -2 -209 103 -33 63 -120 -46 -100 -107 20 -158 94 -147 214 7 71 2 95
-18 95 -37 0 -34 93 3 107 17 7 30 29 30 49 0 51 17 64 83 64 50 0 57 -7 57
-60z m-1970 -62 c98 -27 150 -71 149 -126 0 -41 -1 -41 -30 -3 -27 35 -29 29
-29 -73 0 -158 -41 -204 -180 -204 -138 0 -180 47 -180 199 0 196 81 259 270
207z m858 10 c79 -30 37 -108 -58 -108 -100 0 -121 -32 -35 -52 133 -32 162
-61 144 -140 -32 -142 -319 -180 -335 -45 -6 50 -4 50 110 43 108 -8 113 -6
77 23 -21 17 -55 31 -75 31 -94 0 -150 143 -81 205 53 47 184 69 253 43z m231
-83 c11 -41 21 -90 21 -109 0 -84 37 -44 58 64 39 198 142 178 173 -32 16
-107 28 -96 69 67 19 76 28 85 81 85 68 0 70 -12 28 -150 -16 -55 -39 -134
-50 -175 -32 -118 -169 -115 -189 5 -7 44 -21 80 -30 80 -9 0 -23 -36 -30 -80
-13 -77 -17 -80 -88 -80 l-75 0 -53 186 c-66 228 -66 214 5 214 51 0 62 -10
80 -75z m641 -125 l0 -200 -70 0 -70 0 0 200 0 200 70 0 70 0 0 -200z m945
-85 c5 -63 1 -115 -8 -115 -10 0 -16 61 -15 135 1 155 11 147 23 -20z"/>
<path d="M214 388 c-46 -46 -14 -191 41 -184 51 6 55 13 55 96 0 88 -50 134
-96 88z"/>
</g>
</svg>
